<?xml version="1.0" encoding="UTF-8" standalone="no"?>
<!DOCTYPE svg PUBLIC "-//W3C//DTD SVG 1.1//EN" "http://www.w3.org/Graphics/SVG/1.1/DTD/svg11.dtd">
<svg width="100%" height="100%" viewBox="0 0 64 64" version="1.1" xmlns="http://www.w3.org/2000/svg" xmlns:xlink="http://www.w3.org/1999/xlink" xml:space="preserve" xmlns:serif="http://www.serif.com/" style="fill-rule:evenodd;clip-rule:evenodd;stroke-linejoin:round;stroke-miterlimit:1.41421;">
    <g transform="matrix(-0.4,0,-0,0.4,763.99,-500.02)">
        <path d="M1886.58,1273.45C1871.48,1258.35 1851.38,1250.05 1829.98,1250.05C1808.58,1250.05 1788.48,1258.35 1773.38,1273.45C1742.17,1304.65 1742.17,1355.35 1773.38,1386.55C1788.48,1401.65 1808.58,1409.95 1829.98,1409.95C1851.38,1409.95 1871.48,1401.65 1886.58,1386.55C1901.67,1371.45 1909.98,1351.45 1909.98,1330.05C1909.98,1308.65 1901.67,1288.55 1886.58,1273.45ZM1875.28,1375.35C1863.17,1387.35 1847.08,1394.05 1829.98,1394.05C1812.88,1394.05 1796.78,1387.35 1784.67,1375.35C1759.67,1350.35 1759.67,1309.75 1784.67,1284.85C1796.78,1272.75 1812.88,1266.15 1829.98,1266.15C1847.08,1266.15 1863.17,1272.85 1875.28,1284.85C1887.38,1296.95 1893.98,1313.05 1893.98,1330.15C1893.98,1347.25 1887.28,1363.25 1875.28,1375.35Z" style="fill:white;fill-rule:nonzero;"/>
        <path d="M1847.67,1292.35C1844.58,1289.25 1839.48,1289.25 1836.38,1292.35L1804.38,1324.35C1803.67,1325.05 1803.17,1325.85 1802.78,1326.75C1802.78,1326.85 1802.67,1326.85 1802.67,1326.95C1802.58,1327.25 1802.48,1327.65 1802.38,1328.05C1802.38,1328.15 1802.28,1328.35 1802.28,1328.45C1802.08,1329.45 1802.08,1330.55 1802.28,1331.55C1802.28,1331.65 1802.38,1331.85 1802.38,1331.95C1802.48,1332.35 1802.58,1332.65 1802.67,1333.05C1802.67,1333.15 1802.78,1333.15 1802.78,1333.25C1803.17,1334.15 1803.67,1334.95 1804.38,1335.65L1836.38,1367.65C1837.98,1369.25 1839.98,1369.95 1842.08,1369.95C1844.17,1369.95 1846.17,1369.15 1847.78,1367.65C1850.88,1364.55 1850.88,1359.45 1847.78,1356.35L1821.28,1330.05L1847.58,1303.75C1850.78,1300.55 1850.78,1295.55 1847.67,1292.35Z" style="fill:white;fill-rule:nonzero;"/>
    </g>
</svg>
